<?xml version="1.0" encoding="UTF-8"?>
<svg width="1290px" height="1074px" viewBox="0 0 1290 1074" version="1.1" xmlns="http://www.w3.org/2000/svg" xmlns:xlink="http://www.w3.org/1999/xlink">
    <title>Artboard@1x</title>
    <g id="Artboard" stroke="none" stroke-width="1" fill="none" fill-rule="evenodd">
        <path d="M909.139521,1.17662674 L1288.74452,264.356378 C1289.65226,264.985719 1289.87796,266.231774 1289.24862,267.139521 C1288.87496,267.678478 1288.26081,268 1287.605,268 L906,268 L906,268 L906,2.82024825 C906,1.71567875 906.895431,0.82024825 908,0.82024825 C908.407266,0.82024825 908.804826,0.944582726 909.139521,1.17662674 Z" id="Rectangle" fill="#000000"></path>
        <g id="image" transform="translate(0.000000, 120.000000)" fill="#000000" fill-rule="nonzero">
            <path d="M1002.95166,0.0140636896 L525.637472,0.0140636896 C525.637472,0.0140636896 360.941358,-1.72653765 267.064089,33.5206395 C267.064089,33.5206395 57.0245768,93.1362353 7.37887391,361.140492 C7.37887391,361.140492 -28.7314864,528.09317 58.8131756,683.296789 C58.8131756,683.296789 170.673114,924.273375 423.348955,951.349396 C423.348955,951.349396 734.32345,997.040181 875.236034,709.019009 C875.236034,709.019009 1022.28786,410.312479 611.8286,148.351978 L1003,148.351978 L1003,0.0140636896 L1002.95166,0.0140636896 Z M710.008174,678.703536 C710.008174,678.703536 664.03635,859.387625 538.351026,889.461348 C538.351026,889.461348 390.284047,939.213536 267.354132,766.217103 C267.354132,766.217103 127.795082,578.183808 186.577141,342.767477 C186.577141,342.767477 235.207693,132.638216 538.351026,151.83318 C538.399367,151.83318 783.485748,351.857284 710.008174,678.703536 Z" id="Shape"></path>
        </g>
    </g>
</svg>